<svg id="OBJECTS" xmlns="http://www.w3.org/2000/svg" viewBox="0 0 7.83 10.55"><defs><style>.cls-1{fill:#fff;}</style></defs><path class="cls-1" d="M317.08,337.28H311v-.5a3,3,0,1,1,6.06,0Zm-5-1H316a2,2,0,0,0-3.94,0Z" transform="translate(-310.14 -333.75)"/><path class="cls-1" d="M317,336.47h-5.83a1,1,0,0,0-1,1v5.83a1,1,0,0,0,1,1H317a1,1,0,0,0,1-1v-5.83A1,1,0,0,0,317,336.47Zm-2.25,3.93V342a.67.67,0,0,1-1.34,0V340.4a1.21,1.21,0,0,1-.56-1,1.24,1.24,0,1,1,1.9,1Z" transform="translate(-310.14 -333.75)"/></svg>